<?xml version="1.0" standalone="no"?>
<!DOCTYPE svg PUBLIC "-//W3C//DTD SVG 20010904//EN"
 "http://www.w3.org/TR/2001/REC-SVG-20010904/DTD/svg10.dtd">
<svg version="1.0" xmlns="http://www.w3.org/2000/svg"
 width="3000.000000pt" height="2000.000000pt" viewBox="0 0 3000.000000 2000.000000"
 preserveAspectRatio="xMidYMid meet">
<metadata>
Created by potrace 1.16, written by Peter Selinger 2001-2019
</metadata>
<g transform="translate(0.000000,2000.000000) scale(0.100000,-0.100000)"
fill="#000000" stroke="none">
<path d="M4360 9925 l0 -1895 11210 0 11210 0 0 400 0 400 -765 0 -765 0 0
325 0 325 765 0 765 0 0 200 0 200 -765 0 -765 0 0 35 c0 32 -2 35 -30 35
l-30 0 0 95 0 95 30 0 c28 0 30 3 30 35 l0 35 765 0 765 0 0 200 0 200 -765 0
-765 0 0 325 0 325 765 0 765 0 0 280 0 280 -11210 0 -11210 0 0 -1895z m2052
1807 c32 -11 71 -30 87 -41 29 -21 37 -21 639 -21 547 0 610 -2 616 -16 3 -9
6 -330 6 -715 l0 -699 204 0 c233 0 216 8 216 -101 l0 -69 269 0 269 0 15 24
c9 13 41 36 71 51 51 25 63 27 154 23 89 -3 103 -6 147 -33 36 -22 57 -45 77
-84 27 -51 28 -59 28 -203 l0 -150 -29 -29 -29 -29 -149 0 c-141 0 -152 1
-202 26 -28 15 -59 37 -68 50 l-15 24 -269 0 -269 0 0 -69 c0 -104 6 -101
-226 -101 l-194 0 0 -699 c0 -623 -2 -701 -16 -715 -14 -14 -83 -16 -616 -16
-592 0 -600 0 -629 -21 -70 -50 -134 -64 -294 -64 -160 0 -224 14 -294 64 -29
21 -36 21 -694 21 -366 0 -672 3 -681 6 -15 6 -16 170 -16 1765 l0 1759 681 0
c662 0 682 1 709 20 73 52 159 70 315 66 101 -2 143 -7 187 -24z m19745 -154
c20 -18 23 -31 23 -92 0 -98 -18 -116 -114 -116 -98 0 -116 18 -116 114 0 98
18 116 114 116 58 0 74 -4 93 -22z m-14472 -122 c178 -87 289 -234 321 -426
20 -121 20 -829 0 -950 -42 -256 -230 -435 -491 -470 -57 -7 -189 -10 -356 -8
-246 3 -269 5 -288 22 l-21 19 0 905 c0 837 1 907 17 924 16 18 36 19 387 16
l371 -3 60 -29z m2167 17 c13 -15 146 -412 519 -1548 32 -99 39 -134 39 -199
0 -109 -7 -116 -120 -116 -69 0 -91 4 -101 16 -8 9 -41 98 -75 198 l-61 181
-308 0 -308 0 -61 -181 c-34 -100 -67 -189 -75 -198 -10 -12 -32 -16 -99 -16
-115 0 -122 7 -122 116 0 81 3 92 276 906 152 453 283 831 292 841 12 14 32
17 102 17 70 0 90 -3 102 -17z m2864 -4 c18 -20 19 -50 19 -920 l0 -898 -23
-23 c-22 -23 -26 -23 -306 -26 -308 -3 -369 3 -464 52 -52 27 -116 90 -153
151 l-24 40 0 435 0 435 24 40 c14 22 44 63 67 91 38 45 52 54 123 78 77 25
90 26 296 26 l215 0 0 252 c0 305 -7 288 120 288 76 0 89 -3 106 -21z m1580 0
c18 -20 19 -43 22 -360 l3 -339 329 0 330 0 0 342 c0 304 2 343 17 360 13 15
32 18 103 18 140 0 125 110 125 -940 0 -1049 14 -940 -123 -940 -133 0 -122
-44 -122 472 l0 438 -330 0 -329 0 -3 -434 c-4 -516 7 -476 -126 -476 -65 0
-90 4 -104 17 -17 15 -18 57 -18 921 0 828 1 907 17 924 13 15 32 18 103 18
76 0 89 -3 106 -21z m6801 -381 c20 -18 23 -31 23 -92 0 -98 -18 -116 -114
-116 -98 0 -116 18 -116 114 0 98 18 116 114 116 58 0 74 -4 93 -22z m-12041
-159 c17 -19 19 -38 19 -189 0 -212 1 -210 -123 -210 -112 0 -122 8 -122 102
l0 68 -150 0 -149 0 -3 -524 c-4 -619 8 -566 -126 -566 -65 0 -90 4 -104 17
-17 15 -18 49 -18 651 0 577 2 637 17 654 15 17 40 18 378 18 355 0 362 0 381
-21z m2245 -5 c71 -24 85 -33 123 -78 68 -81 86 -121 97 -210 6 -46 9 -276 7
-532 -4 -537 8 -494 -128 -494 -70 0 -90 3 -103 18 -14 15 -16 73 -19 472 -3
410 -5 458 -20 485 -57 98 -102 115 -308 115 l-149 0 -3 -524 c-4 -619 8 -566
-126 -566 -65 0 -90 4 -104 17 -17 15 -18 49 -18 651 0 577 2 637 17 654 15
17 39 18 335 18 318 0 319 0 399 -26z m1830 10 c8 -9 71 -184 141 -388 69
-204 129 -364 132 -356 3 8 58 175 122 370 64 195 123 363 132 373 12 14 32
17 100 17 115 0 122 -7 122 -115 0 -80 -5 -98 -271 -906 -167 -509 -278 -832
-290 -844 -18 -18 -33 -20 -193 -20 -219 0 -216 -1 -216 123 0 116 6 122 120
122 l86 0 68 213 68 213 -171 508 c-165 491 -171 511 -171 589 0 110 7 117
120 117 69 0 90 -3 101 -16z m3070 -10 c71 -24 85 -33 123 -78 68 -81 86 -121
97 -210 6 -46 9 -276 7 -533 l-3 -452 -23 -23 c-22 -23 -28 -23 -278 -26 -288
-4 -365 6 -456 57 -63 36 -134 107 -174 176 -29 50 -29 50 -29 220 l0 170 32
55 c38 66 110 136 178 176 l50 29 226 3 226 3 -4 27 c-9 59 -14 70 -43 108
-51 63 -69 67 -316 73 -273 7 -264 3 -264 129 0 130 -19 122 302 122 264 0
270 0 349 -26z m1222 -3 c100 -41 185 -162 207 -296 8 -48 11 -211 8 -522 l-3
-452 -23 -23 c-22 -22 -28 -23 -265 -26 -285 -5 -381 6 -465 50 -72 38 -143
107 -185 178 l-32 55 0 170 0 170 32 55 c38 66 110 136 178 176 l50 29 228 3
c226 3 227 3 227 25 -1 28 -32 94 -62 129 -40 46 -68 52 -304 58 -273 6 -264
2 -264 128 0 132 -22 124 325 120 278 -3 292 -5 348 -27z m1029 14 c90 -18
247 -72 271 -93 24 -21 25 -177 0 -204 -25 -28 -163 -25 -245 6 -35 12 -99 31
-142 41 -94 20 -136 12 -191 -36 -41 -36 -44 -60 -12 -106 25 -37 49 -48 312
-153 251 -100 281 -116 327 -176 56 -74 78 -145 78 -249 0 -156 -57 -253 -188
-320 -56 -29 -60 -30 -207 -30 -99 0 -186 6 -255 18 -124 22 -298 72 -322 94
-25 23 -26 178 -1 205 25 28 159 25 260 -6 82 -26 233 -55 299 -58 47 -1 93
21 128 62 24 29 25 33 11 58 -35 65 -32 63 -306 172 -277 111 -304 125 -349
185 -59 80 -70 119 -70 254 0 95 4 128 19 163 31 71 130 152 216 177 50 15
287 12 367 -4z m-13415 -377 c20 -18 23 -31 23 -92 0 -98 -18 -116 -114 -116
-98 0 -116 18 -116 114 0 98 18 116 114 116 58 0 74 -4 93 -22z m530 -560 c20
-18 23 -31 23 -92 0 -98 -18 -116 -114 -116 -98 0 -116 18 -116 114 0 98 18
116 114 116 58 0 74 -4 93 -22z m-530 -560 c20 -18 23 -31 23 -92 0 -98 -18
-116 -114 -116 -98 0 -116 18 -116 114 0 98 18 116 114 116 58 0 74 -4 93 -22z
m1300 -140 c20 -18 23 -31 23 -92 0 -98 -18 -116 -114 -116 -98 0 -116 18
-116 114 0 98 18 116 114 116 58 0 74 -4 93 -22z m13430 -40 c20 -18 23 -31
23 -92 0 -98 -18 -116 -114 -116 -98 0 -116 18 -116 114 0 98 18 116 114 116
58 0 74 -4 93 -22z m-11710 -70 c20 -18 23 -31 23 -92 0 -98 -18 -116 -114
-116 -98 0 -116 18 -116 114 0 98 18 116 114 116 58 0 74 -4 93 -22z m2170 0
c20 -18 23 -31 23 -92 0 -98 -18 -116 -114 -116 -98 0 -116 18 -116 114 0 98
18 116 114 116 58 0 74 -4 93 -22z m2280 0 c20 -18 23 -31 23 -92 0 -98 -18
-116 -114 -116 -98 0 -116 18 -116 114 0 98 18 116 114 116 58 0 74 -4 93 -22z
m5230 0 c20 -18 23 -31 23 -92 0 -98 -18 -116 -114 -116 -98 0 -116 18 -116
114 0 98 18 116 114 116 58 0 74 -4 93 -22z m3360 0 c20 -18 23 -31 23 -92 0
-98 -18 -116 -114 -116 -98 0 -116 18 -116 114 0 98 18 116 114 116 58 0 74
-4 93 -22z m-6060 -70 c20 -18 23 -31 23 -92 0 -98 -18 -116 -114 -116 -98 0
-116 18 -116 114 0 98 18 116 114 116 58 0 74 -4 93 -22z m-5323 -154 c3 -9 6
-123 6 -254 0 -204 -2 -241 -16 -254 -14 -14 -68 -16 -444 -16 -236 0 -435 3
-444 6 -14 5 -16 39 -16 270 l0 264 454 0 c405 0 455 -2 460 -16z m12443 -266
c20 -18 23 -31 23 -92 0 -98 -18 -116 -114 -116 -98 0 -116 18 -116 114 0 98
18 116 114 116 58 0 74 -4 93 -22z m-16030 -210 c20 -18 23 -31 23 -92 0 -98
-18 -116 -114 -116 -98 0 -116 18 -116 114 0 98 18 116 114 116 58 0 74 -4 93
-22z m1960 -70 c20 -18 23 -31 23 -92 0 -98 -18 -116 -114 -116 -98 0 -116 18
-116 114 0 98 18 116 114 116 58 0 74 -4 93 -22z m2140 0 c20 -18 23 -31 23
-92 0 -98 -18 -116 -114 -116 -98 0 -116 18 -116 114 0 98 18 116 114 116 58
0 74 -4 93 -22z m2250 0 c20 -18 23 -31 23 -92 0 -98 -18 -116 -114 -116 -98
0 -116 18 -116 114 0 98 18 116 114 116 58 0 74 -4 93 -22z m2560 0 c20 -18
23 -31 23 -92 0 -98 -18 -116 -114 -116 -98 0 -116 18 -116 114 0 98 18 116
114 116 58 0 74 -4 93 -22z m2700 -30 c20 -18 23 -31 23 -92 0 -98 -18 -116
-114 -116 -98 0 -116 18 -116 114 0 98 18 116 114 116 58 0 74 -4 93 -22z
m2030 0 c20 -18 23 -31 23 -92 0 -98 -18 -116 -114 -116 -98 0 -116 18 -116
114 0 98 18 116 114 116 58 0 74 -4 93 -22z"/>
<path d="M4670 9905 l0 -1615 535 0 534 0 -18 43 c-29 66 -41 140 -41 242 0
179 35 272 144 381 109 109 202 144 381 144 179 0 272 -35 381 -144 109 -109
144 -202 144 -381 0 -102 -12 -176 -41 -242 l-18 -43 469 0 470 0 0 1615 0
1615 -470 0 -469 0 18 -43 c29 -66 41 -140 41 -242 0 -179 -35 -272 -144 -381
-109 -109 -202 -144 -381 -144 -179 0 -272 35 -381 144 -109 109 -144 202
-144 381 0 102 12 176 41 242 l18 43 -534 0 -535 0 0 -1615z"/>
<path d="M7760 9905 l0 -185 135 0 135 0 0 185 0 185 -135 0 -135 0 0 -185z"/>
<path d="M11100 10545 l0 -695 124 0 c265 0 404 62 489 218 47 87 57 171 57
487 0 316 -10 400 -57 487 -38 70 -101 131 -175 167 l-61 31 -189 0 -188 0 0
-695z"/>
<path d="M13637 10597 c-59 -177 -107 -326 -107 -330 0 -4 99 -7 221 -7 173 0
220 3 217 13 -3 6 -51 152 -108 322 -56 171 -105 313 -109 317 -4 4 -55 -138
-114 -315z"/>
<path d="M16129 10682 c-45 -16 -82 -51 -108 -99 -7 -15 -11 -111 -11 -306 0
-279 0 -285 23 -318 54 -81 138 -109 324 -109 l133 0 0 425 0 425 -157 0
c-123 -1 -168 -5 -204 -18z"/>
<path d="M19824 10208 c-54 -36 -114 -117 -114 -153 0 -36 60 -117 112 -152
61 -40 123 -53 253 -53 l105 0 0 195 0 195 -154 0 -154 0 -48 -32z"/>
<path d="M21024 10208 c-54 -36 -114 -117 -114 -153 0 -35 60 -117 111 -151
58 -39 134 -54 266 -54 l103 0 0 195 0 195 -159 0 -159 0 -48 -32z"/>
<path d="M13210 8710 l0 -120 50 0 50 0 0 120 0 120 -50 0 -50 0 0 -120z"/>
</g>
</svg>
